<?xml version="1.0" encoding="UTF-8"?> <svg xmlns="http://www.w3.org/2000/svg" version="1.2" width="512" height="334.844" viewBox="0 0 13546.666 8859.406" preserveAspectRatio="xMidYMid" xml:space="preserve" style="fill-rule:evenodd;stroke-width:28.22200012;stroke-linejoin:round"><defs class="ClipPathGroup"><clipPath id="a"><path d="M0 0h21000v29700H0z"></path></clipPath></defs><g class="SlideGroup"><g clip-path="url(#a)" class="Slide" transform="matrix(1.00413 0 0 1.00413 -3682.13 -5790.796)"><g class="Page"><g class="com.sun.star.drawing.PolyPolygonShape"><path class="BoundingBox" style="fill:none;stroke:none" d="M12234 13659h555v931h-555z"></path><path d="m12505 13660-270 929h553l-272-929z" style="fill:#000;stroke:none"></path></g><g class="com.sun.star.drawing.PolyPolygonShape"><path class="BoundingBox" style="fill:none;stroke:none" d="M9608 14017h535v573h-535z"></path><path d="M9608 14204v385h534l-381-572z" style="fill:#000;stroke:none"></path></g><g class="com.sun.star.drawing.PolyPolygonShape"><path class="BoundingBox" style="fill:none;stroke:none" d="M13998 13487h376v559h-376z"></path><path d="m14180 13487-181 558h374l-182-558z" style="fill:#000;stroke:none"></path></g><g class="com.sun.star.drawing.PolyPolygonShape"><path class="BoundingBox" style="fill:none;stroke:none" d="M13820 14286h731v304h-731z"></path><path d="M13821 14589h729l-99-303h-530z" style="fill:#000;stroke:none"></path></g><g class="com.sun.star.drawing.ClosedBezierShape"><path class="BoundingBox" style="fill:none;stroke:none" d="M3667 5767h13491v8823H3667z"></path><path d="M4242 13151c90 0 166 8 229 23 62 16 112 39 151 70 38 31 66 70 83 117 17 48 25 104 25 168 0 52-6 98-20 137-13 40-32 73-55 101-24 28-52 50-84 67-33 17-68 30-106 39 41 2 82 9 121 21s73 32 103 58c30 27 54 62 72 105s27 96 27 159c0 68-9 127-28 177-18 51-48 94-88 128-35 29-80 52-133 68h514v-1438h310v1215h640v223h254l496-1438h401l495 1438h451c-77-30-143-73-198-131-59-62-104-141-135-235-31-95-46-207-46-336s15-241 47-336c32-94 77-173 136-236 59-62 131-108 215-139 85-30 180-45 287-45 94 0 178 12 252 36s138 59 192 104c54 46 97 103 130 169 32 67 54 142 64 227h-315c-5-40-16-76-30-109-15-32-35-59-60-82-25-22-56-39-93-51s-82-18-133-18c-66 0-123 9-171 27-47 18-86 46-116 85-31 39-54 89-68 149-15 61-22 134-22 219 0 88 7 162 22 223s38 111 68 149c31 38 70 66 117 83s103 26 168 26c50 0 93-6 130-17s68-27 93-48c26-22 46-48 61-78 16-31 27-66 34-105l315 1c-6 45-16 90-31 133-14 43-34 84-58 123-24 38-54 74-88 106-35 33-75 61-120 85-15 8-31 15-48 21h598v-1438h311v650h19l529-650h373l-546 660 441 647h1453l-374-1307h340l243 1023h12l269-1023h290l268 1025h13l243-1025h340l-411 1438h380l496-1438h401l495 1438h157v-1438h311v1215h630v223h221v-1438h311v1215h623l21-8599-13489 6373v1011z" style="fill:#000;stroke:none"></path></g><g class="com.sun.star.drawing.ClosedBezierShape"><path class="BoundingBox" style="fill:none;stroke:none" d="M3963 13977h506v393h-506z"></path><path d="M3964 14368h255c52 0 95-2 127-8 33-5 58-14 76-28s30-33 37-57c6-23 9-53 9-90 0-39-4-73-12-99-8-27-21-48-40-64-18-16-43-28-74-35s-70-10-116-10h-262z" style="fill:#000;stroke:none"></path></g><g class="com.sun.star.drawing.ClosedBezierShape"><path class="BoundingBox" style="fill:none;stroke:none" d="M3964 13403h456v366h-456z"></path><path d="M4368 13731c17-13 30-32 38-57 8-24 12-56 12-94 0-36-3-65-10-88-6-23-17-41-33-54-16-14-38-23-66-28s-64-7-107-7h-238v365h232c40 0 75-3 103-8 28-6 51-15 69-29z" style="fill:#000;stroke:none"></path></g><g class="com.sun.star.drawing.PolyPolygonShape"><path class="BoundingBox" style="fill:none;stroke:none" d="M6767 13487h375v559h-375z"></path><path d="m6949 13487-182 558h374l-180-558z" style="fill:#000;stroke:none"></path></g><g class="com.sun.star.drawing.PolyPolygonShape"><path class="BoundingBox" style="fill:none;stroke:none" d="M6590 14286h730v304h-730z"></path><path d="M6590 14589h728l-99-303h-531z" style="fill:#000;stroke:none"></path></g></g></g></g></svg> 